<?xml version="1.0" standalone="no"?>
<!DOCTYPE svg PUBLIC "-//W3C//DTD SVG 20010904//EN"
 "http://www.w3.org/TR/2001/REC-SVG-20010904/DTD/svg10.dtd">
<svg version="1.0" xmlns="http://www.w3.org/2000/svg"
 width="512.000000pt" height="512.000000pt" viewBox="0 0 512.000000 512.000000"
 preserveAspectRatio="xMidYMid meet">
<metadata>
Created by potrace 1.14, written by Peter Selinger 2001-2017
</metadata>
<g transform="translate(0.000000,512.000000) scale(0.100000,-0.100000)"
fill="#000000" stroke="none">
<path d="M151 5113 c-56 -11 -118 -70 -140 -133 -9 -26 -11 -266 -10 -950 1
-956 2 -979 45 -1165 116 -490 447 -903 899 -1120 61 -29 135 -60 165 -70 30
-10 59 -21 63 -25 13 -11 10 -906 -3 -963 -42 -187 -204 -276 -530 -291 -123
-6 -185 -39 -227 -119 -47 -91 5 -218 108 -261 45 -19 286 -13 369 9 8 2 31 7
50 10 19 3 69 17 110 31 203 69 362 197 443 359 78 156 83 210 82 870 -1 512
-2 553 -19 588 -26 52 -81 95 -146 113 -117 32 -197 59 -256 85 -357 161 -624
477 -719 851 -13 51 -26 118 -30 148 -13 92 -13 1639 -1 1643 6 2 582 3 1280
3 l1270 -1 0 -745 c1 -726 -3 -869 -25 -977 -6 -29 -10 -55 -10 -58 0 -3 -16
-51 -35 -107 -73 -210 -167 -357 -326 -510 -170 -164 -343 -257 -620 -333 -68
-18 -124 -63 -149 -120 -17 -37 -18 -81 -15 -625 1 -322 5 -596 9 -610 4 -14
12 -47 18 -75 23 -100 87 -213 168 -295 42 -43 90 -86 106 -97 93 -63 270
-131 381 -147 119 -18 169 -22 259 -21 88 0 105 3 139 24 132 82 126 269 -10
340 -28 14 -67 22 -129 26 -250 16 -373 54 -462 145 -45 46 -71 107 -80 187
-11 96 -9 912 3 922 5 5 34 16 64 26 30 10 101 40 157 67 381 183 676 500 834
895 17 43 32 83 33 88 1 6 10 35 18 65 23 75 46 193 55 276 5 38 8 483 8 989
0 857 -1 922 -17 952 -27 49 -77 90 -124 102 -42 11 -2998 14 -3053 4z"/>
<path d="M3670 5104 c-44 -19 -66 -39 -98 -89 l-26 -40 0 -740 -1 -740 25 -40
c42 -69 99 -103 175 -104 47 -1 121 34 147 70 47 62 47 61 45 829 -2 671 -3
727 -20 757 -21 40 -64 81 -97 95 -42 17 -113 18 -150 2z"/>
<path d="M4257 5101 c-48 -22 -75 -48 -100 -96 -21 -40 -21 -48 -21 -770 l-1
-730 23 -44 c84 -160 314 -140 361 31 9 32 11 232 9 768 -3 705 -4 726 -23
756 -57 88 -162 125 -248 85z"/>
<path d="M4845 5102 c-44 -21 -74 -52 -98 -97 -20 -40 -20 -50 -21 -980 -2
-890 -3 -943 -20 -995 -55 -161 -185 -258 -368 -274 -100 -9 -162 -54 -191
-143 -10 -30 -13 -283 -12 -1228 1 -655 5 -1209 9 -1233 9 -51 75 -125 121
-137 106 -27 194 7 241 95 18 34 19 77 22 1156 l2 1122 52 17 c249 81 442 289
515 556 17 59 18 136 18 1044 l0 980 -22 35 c-53 84 -167 121 -248 82z"/>
</g>
</svg>
